<?xml version="1.0" standalone="no"?>
<!DOCTYPE svg PUBLIC "-//W3C//DTD SVG 20010904//EN"
 "http://www.w3.org/TR/2001/REC-SVG-20010904/DTD/svg10.dtd">
<svg version="1.0" xmlns="http://www.w3.org/2000/svg"
 width="224.000000pt" height="224.000000pt" viewBox="0 0 224.000000 224.000000"
 preserveAspectRatio="xMidYMid meet">
<metadata>
Created by potrace 1.11, written by Peter Selinger 2001-2013
</metadata>
<g transform="translate(0.000000,224.000000) scale(0.100000,-0.100000)"
fill="#000000" stroke="none">
<path d="M240 1740 c0 -11 -4 -20 -10 -20 -5 0 -10 -13 -10 -30 0 -16 -4 -30
-10 -30 -5 0 -10 -18 -10 -40 0 -22 5 -40 10 -40 6 0 10 -18 10 -40 0 -22 5
-40 10 -40 6 0 10 -9 10 -20 0 -11 5 -20 10 -20 6 0 10 -8 10 -18 0 -10 9 -24
20 -32 11 -8 20 -22 20 -32 0 -10 5 -18 10 -18 6 0 10 -18 10 -40 0 -22 5 -40
10 -40 6 0 10 -13 10 -28 0 -16 8 -34 20 -42 12 -8 20 -26 20 -42 0 -15 5 -28
10 -28 6 0 10 -17 10 -38 0 -26 6 -42 20 -52 11 -8 20 -20 20 -28 0 -17 25
-42 42 -42 8 0 20 -9 28 -20 8 -12 26 -20 42 -20 24 0 28 -4 28 -30 0 -16 5
-30 10 -30 6 0 10 -8 10 -18 0 -10 9 -24 20 -32 14 -10 20 -26 20 -52 0 -21 5
-38 10 -38 6 0 10 -9 10 -20 0 -11 5 -20 10 -20 6 0 10 -8 10 -18 0 -10 9 -24
20 -32 12 -8 20 -26 20 -42 0 -15 5 -28 10 -28 6 0 10 -7 10 -15 0 -20 105
-125 125 -125 8 0 15 -4 15 -10 0 -5 9 -10 20 -10 11 0 20 -4 20 -10 0 -6 40
-10 100 -10 60 0 100 4 100 10 0 6 9 10 20 10 11 0 20 5 20 10 0 6 9 10 20 10
11 0 20 5 20 10 0 6 43 10 110 10 67 0 110 4 110 10 0 6 25 10 56 10 49 0 59
4 84 30 23 25 36 30 74 30 25 0 46 5 46 10 0 6 7 10 15 10 9 0 36 20 60 45
l45 44 0 176 c0 110 -4 175 -10 175 -5 0 -10 9 -10 20 0 11 -4 20 -10 20 -5 0
-10 7 -10 15 0 20 -45 65 -65 65 -8 0 -15 5 -15 10 0 6 -7 10 -16 10 -8 0 -33
18 -54 40 -21 22 -46 40 -54 40 -9 0 -16 5 -16 10 0 6 -9 10 -20 10 -11 0 -20
5 -20 10 0 6 -22 10 -50 10 l-50 0 0 40 c0 22 -4 40 -10 40 -5 0 -10 8 -10 18
0 10 -9 24 -20 32 -11 8 -20 20 -20 28 0 17 -45 62 -62 62 -8 0 -20 9 -28 20
-8 11 -22 20 -32 20 -10 0 -18 5 -18 10 0 6 -9 10 -20 10 -11 0 -20 5 -20 10
0 6 -9 10 -20 10 -11 0 -20 5 -20 10 0 6 -18 10 -40 10 -22 0 -40 5 -40 10 0
6 -13 10 -30 10 -16 0 -30 5 -30 10 0 6 -18 10 -40 10 -22 0 -40 5 -40 10 0 6
-13 10 -30 10 -16 0 -30 5 -30 10 0 6 -17 10 -38 10 -26 0 -42 6 -52 20 -8 11
-20 20 -28 20 -18 0 -42 25 -42 44 0 20 -46 21 -66 2 -17 -17 -21 -186 -4
-186 6 0 10 -4 10 -10 0 -5 -9 -10 -20 -10 -11 0 -20 5 -20 10 0 6 -9 10 -20
10 -11 0 -20 5 -20 10 0 6 -8 10 -18 10 -10 0 -24 9 -32 20 -8 11 -20 20 -28
20 -7 0 -40 27 -72 60 -32 33 -66 60 -74 60 -9 0 -16 5 -16 10 0 6 -13 10 -30
10 -23 0 -30 -4 -30 -20z m110 -140 c8 -11 22 -20 32 -20 10 0 18 -4 18 -10 0
-5 8 -10 18 -10 10 0 24 -9 32 -20 8 -12 26 -20 42 -20 15 0 28 -4 28 -10 0
-5 9 -10 20 -10 11 0 20 -4 20 -10 0 -6 30 -10 70 -10 40 0 70 -4 70 -10 0 -6
30 -10 70 -10 40 0 70 -4 70 -10 0 -5 14 -10 30 -10 17 0 30 -4 30 -10 0 -5 7
-10 15 -10 20 0 105 -85 105 -105 0 -8 5 -15 10 -15 6 0 10 -13 10 -30 0 -16
5 -30 10 -30 6 0 10 -22 10 -50 0 -27 5 -50 10 -50 6 0 10 -18 10 -40 0 -22 5
-40 10 -40 6 0 10 -40 10 -100 0 -60 -4 -100 -10 -100 -5 0 -10 -7 -10 -15 0
-9 -16 -31 -35 -50 -28 -29 -42 -35 -76 -35 -33 0 -47 6 -69 30 -23 25 -36 30
-74 30 -25 0 -46 5 -46 10 0 6 -13 10 -30 10 -16 0 -30 5 -30 10 0 6 -9 10
-20 10 -13 0 -20 7 -20 20 0 11 -4 20 -10 20 -5 0 -10 5 -10 10 0 6 9 10 20
10 11 0 20 5 20 10 0 6 9 10 20 10 11 0 20 -4 20 -10 0 -5 9 -10 20 -10 11 0
20 -4 20 -10 0 -5 14 -10 30 -10 17 0 30 -4 30 -10 0 -5 9 -10 20 -10 11 0 20
3 20 6 0 11 -29 34 -44 34 -9 0 -16 5 -16 10 0 6 -7 10 -15 10 -20 0 -85 65
-85 85 0 8 -4 15 -10 15 -5 0 -10 9 -10 20 0 11 5 20 10 20 6 0 10 -4 10 -10
0 -5 9 -10 20 -10 11 0 20 -4 20 -10 0 -5 14 -10 30 -10 17 0 30 -4 30 -10 0
-5 14 -10 30 -10 17 0 30 5 30 10 0 6 -9 10 -20 10 -11 0 -20 5 -20 10 0 6 -9
10 -20 10 -11 0 -20 5 -20 10 0 6 -8 10 -18 10 -10 0 -24 9 -32 20 -8 11 -20
20 -28 20 -18 0 -62 45 -62 64 0 8 -6 16 -12 18 -9 3 -8 9 4 21 18 19 128 25
128 7 0 -5 9 -10 20 -10 11 0 20 -4 20 -10 0 -5 9 -10 20 -10 27 0 25 26 -5
55 -16 17 -35 25 -60 25 -19 0 -35 5 -35 10 0 6 -27 10 -60 10 -33 0 -60 4
-60 10 0 6 -22 10 -50 10 -27 0 -50 5 -50 10 0 6 -18 10 -40 10 -22 0 -40 5
-40 10 0 6 -7 10 -15 10 -20 0 -65 45 -65 65 0 8 -4 15 -10 15 -5 0 -10 9 -10
20 0 11 -4 20 -10 20 -5 0 -10 23 -10 50 0 28 -4 50 -10 50 -5 0 -10 9 -10 20
0 13 7 20 18 20 10 0 24 -9 32 -20z m350 10 c0 -5 14 -10 30 -10 17 0 30 -4
30 -10 0 -5 14 -10 30 -10 17 0 30 -4 30 -10 0 -5 18 -10 40 -10 22 0 40 -4
40 -10 0 -5 18 -10 40 -10 22 0 40 -4 40 -10 0 -5 14 -10 30 -10 17 0 30 -4
30 -10 0 -5 14 -10 30 -10 17 0 30 -4 30 -10 0 -5 14 -10 30 -10 17 0 30 -4
30 -10 0 -5 9 -10 20 -10 11 0 20 -4 20 -10 0 -5 7 -10 15 -10 20 0 85 -65 85
-85 0 -8 5 -15 10 -15 6 0 10 -9 10 -20 0 -11 5 -20 10 -20 6 0 10 -18 10 -40
0 -37 -2 -40 -26 -40 -15 0 -35 -10 -47 -22 -13 -16 -21 -19 -24 -10 -3 6 -13
12 -24 12 -10 0 -19 5 -19 10 0 6 -16 10 -36 10 -38 0 -64 18 -64 44 0 9 -4
16 -10 16 -5 0 -10 9 -10 20 0 11 -4 20 -10 20 -5 0 -10 9 -10 20 0 11 5 20
10 20 6 0 10 -4 10 -10 0 -5 9 -10 20 -10 11 0 20 2 20 5 0 13 -50 55 -65 55
-8 0 -15 5 -15 10 0 6 -9 10 -20 10 -11 0 -20 5 -20 10 0 6 -9 10 -20 10 -11
0 -20 5 -20 10 0 6 -9 10 -20 10 -11 0 -20 5 -20 10 0 6 -9 10 -20 10 -11 0
-20 5 -20 10 0 6 -18 10 -40 10 -22 0 -40 5 -40 10 0 6 -16 10 -35 10 -38 0
-85 36 -85 65 0 8 -4 15 -10 15 -5 0 -10 5 -10 10 0 6 9 10 20 10 11 0 20 -4
20 -10z m-220 -360 c0 -5 23 -10 50 -10 43 0 50 -3 50 -20 0 -11 5 -20 10 -20
6 0 10 -9 10 -20 0 -11 5 -20 10 -20 6 0 10 -4 10 -10 0 -5 -18 -10 -40 -10
-22 0 -40 5 -40 10 0 6 -7 10 -15 10 -20 0 -65 45 -65 65 0 8 -4 15 -10 15 -5
0 -10 5 -10 10 0 6 9 10 20 10 11 0 20 -4 20 -10z m960 -60 c0 -5 14 -10 30
-10 17 0 30 -4 30 -10 0 -5 9 -10 20 -10 13 0 20 -7 20 -19 0 -11 6 -22 13
-25 10 -5 10 -7 0 -12 -26 -12 -12 -24 27 -24 22 0 40 -4 40 -10 0 -5 7 -10
15 -10 20 0 85 -65 85 -85 0 -8 5 -15 10 -15 6 0 10 -18 10 -40 0 -22 -4 -40
-10 -40 -5 0 -10 -9 -10 -20 0 -16 -7 -20 -30 -20 -27 0 -30 -3 -30 -30 0 -27
3 -30 30 -30 23 0 30 -4 30 -20 0 -11 5 -20 10 -20 6 0 10 -9 10 -20 0 -11 -4
-20 -10 -20 -5 0 -10 -7 -10 -15 0 -29 -47 -65 -85 -65 -40 0 -44 9 -15 30 11
8 20 22 20 32 0 11 -7 18 -20 18 -17 0 -20 7 -20 50 0 28 -4 50 -10 50 -5 0
-10 25 -10 56 0 54 14 84 40 84 6 0 18 7 26 15 14 13 13 17 -2 32 -13 13 -19
14 -22 5 -4 -14 -82 -17 -82 -2 0 6 -9 10 -20 10 -13 0 -20 7 -20 20 0 11 -4
20 -10 20 -5 0 -10 7 -10 16 0 9 -10 26 -22 37 -16 13 -19 21 -10 24 6 3 12
13 12 24 0 14 -7 19 -30 19 -16 0 -30 -4 -30 -10 0 -15 -29 -12 -46 4 -21 21
-18 26 16 26 17 0 30 5 30 10 0 6 9 10 20 10 11 0 20 -4 20 -10z m-300 -20 c0
-5 9 -10 20 -10 11 0 20 -4 20 -10 0 -5 -4 -10 -10 -10 -5 0 -10 -4 -10 -10 0
-6 33 -10 80 -10 47 0 80 -4 80 -10 0 -5 11 -10 25 -10 29 0 95 -59 95 -85 0
-8 5 -15 10 -15 15 0 12 -49 -4 -66 -8 -8 -26 -14 -40 -14 -30 0 -32 -5 -12
-26 17 -16 46 -19 46 -4 0 15 49 12 66 -4 8 -8 14 -22 14 -30 0 -9 5 -16 10
-16 6 0 10 -29 10 -66 0 -73 -12 -94 -54 -94 -29 0 -35 -23 -12 -46 8 -8 22
-14 30 -14 20 0 21 -27 2 -46 -44 -44 -146 20 -146 91 0 19 5 35 10 35 6 0 10
7 10 16 0 23 25 44 54 44 22 0 26 4 26 30 0 17 -4 30 -10 30 -5 0 -10 -4 -10
-10 0 -5 -13 -10 -30 -10 -16 0 -30 -4 -30 -10 0 -5 -9 -10 -20 -10 -11 0 -20
5 -20 10 0 6 -7 10 -16 10 -30 0 -44 27 -44 84 0 56 0 56 30 56 27 0 30 3 30
30 0 26 -4 30 -28 30 -16 0 -34 -8 -42 -20 -19 -26 -94 -28 -118 -3 -12 12
-13 18 -4 21 14 4 17 62 2 62 -5 0 -10 14 -10 30 0 17 -4 30 -10 30 -5 0 -10
14 -10 30 0 17 5 30 10 30 6 0 10 -4 10 -10z m-600 -80 c0 -5 23 -10 50 -10
43 0 50 -3 50 -20 0 -11 5 -20 10 -20 6 0 10 -9 10 -20 0 -11 5 -20 10 -20 6
0 10 -4 10 -10 0 -5 -18 -10 -40 -10 -22 0 -40 5 -40 10 0 6 -7 10 -15 10 -20
0 -65 45 -65 65 0 8 -4 15 -10 15 -5 0 -10 5 -10 10 0 6 9 10 20 10 11 0 20
-4 20 -10z m646 -204 c8 -9 14 -35 14 -67 0 -40 -5 -56 -21 -70 -20 -17 -20
-19 -5 -35 15 -15 19 -13 45 15 50 54 81 33 81 -53 0 -31 5 -56 10 -56 6 0 10
-8 10 -18 0 -10 9 -24 20 -32 30 -22 24 -30 -20 -30 -33 0 -40 3 -40 20 0 11
-4 20 -10 20 -5 0 -10 23 -10 50 0 49 -1 50 -30 50 -16 0 -30 -4 -30 -10 0 -5
-25 -10 -56 -10 -93 0 -111 45 -44 110 26 25 40 47 40 64 0 14 5 26 10 26 6 0
10 9 10 20 0 24 6 25 26 6z m-366 -116 c0 -5 14 -10 30 -10 27 0 30 -3 30 -30
0 -16 -4 -30 -10 -30 -5 0 -10 -25 -10 -55 0 -52 3 -58 45 -100 24 -25 51 -45
60 -45 21 0 19 13 -5 30 -11 8 -20 22 -20 32 0 10 -4 18 -10 18 -5 0 -10 9
-10 20 0 11 -4 20 -10 20 -18 0 -10 31 15 55 27 28 75 34 75 10 0 -20 45 -65
65 -65 8 0 15 -4 15 -10 0 -5 18 -10 40 -10 22 0 40 -4 40 -10 0 -5 9 -10 20
-10 13 0 20 -7 20 -20 0 -17 -7 -20 -50 -20 -27 0 -50 5 -50 10 0 6 -9 10 -20
10 -11 0 -20 5 -20 10 0 6 -8 10 -18 10 -10 0 -24 9 -32 20 -15 21 -50 28 -50
10 0 -5 5 -10 10 -10 6 0 10 -7 10 -16 0 -18 23 -44 40 -44 11 0 60 -44 60
-55 0 -3 -36 -5 -80 -5 -47 0 -80 4 -80 10 0 6 -7 10 -15 10 -20 0 -85 65 -85
85 0 8 -4 15 -10 15 -5 0 -10 9 -10 20 0 11 5 20 10 20 6 0 10 9 10 20 0 15
-7 20 -26 20 -33 0 -54 21 -54 54 0 19 5 26 20 26 11 0 20 5 20 10 0 6 9 10
20 10 11 0 20 -4 20 -10z"/>
<path d="M920 270 c0 -6 -30 -10 -70 -10 -40 0 -70 -4 -70 -10 0 -5 -18 -10
-40 -10 -22 0 -40 -4 -40 -10 0 -5 -7 -10 -15 -10 -22 0 -73 -52 -57 -58 7 -2
12 -12 12 -23 0 -12 7 -19 20 -19 11 0 20 -4 20 -10 0 -5 18 -10 40 -10 22 0
40 -4 40 -10 0 -5 23 -10 50 -10 28 0 50 -4 50 -10 0 -6 90 -10 250 -10 160 0
250 4 250 10 0 6 23 10 50 10 28 0 50 5 50 10 0 6 18 10 40 10 22 0 40 5 40
10 0 6 9 10 20 10 13 0 20 7 20 19 0 11 5 21 12 23 16 6 -35 58 -57 58 -8 0
-15 5 -15 10 0 6 -18 10 -40 10 -22 0 -40 5 -40 10 0 6 -30 10 -70 10 -40 0
-70 4 -70 10 0 6 -70 10 -190 10 -120 0 -190 -4 -190 -10z"/>
</g>
</svg>
